<?xml version="1.0" standalone="no"?>
<!DOCTYPE svg PUBLIC "-//W3C//DTD SVG 20010904//EN"
 "http://www.w3.org/TR/2001/REC-SVG-20010904/DTD/svg10.dtd">
<svg version="1.0" xmlns="http://www.w3.org/2000/svg"
 width="1781.000000pt" height="1901.000000pt" viewBox="0 0 1781.000000 1901.000000"
 preserveAspectRatio="xMidYMid meet">

<g transform="translate(0.000000,1901.000000) scale(0.100000,-0.100000)"
fill="#000000" stroke="none">
<path d="M8360 19006 c0 -7 329 -1148 332 -1151 2 -2 43 -5 93 -6 l89 -3 168
429 c92 237 169 434 171 439 2 5 62 -193 135 -439 72 -246 133 -450 135 -452
3 -2 44 -5 93 -6 l88 -2 212 555 c118 305 214 558 214 563 0 4 -37 7 -83 7
l-83 0 -169 -440 c-94 -242 -172 -440 -175 -440 -3 0 -63 201 -134 448 -71
246 -132 450 -135 453 -3 4 -40 10 -82 14 l-75 6 -174 -440 c-96 -243 -177
-441 -180 -441 -3 0 -62 199 -130 442 -69 242 -131 447 -138 455 -9 9 -40 13
-93 13 -43 0 -79 -2 -79 -4z"/>
<path d="M10565 18798 c-6 -19 -225 -1082 -225 -1094 0 -10 158 -50 165 -42 5
6 233 1113 229 1117 -4 5 -125 30 -147 31 -10 0 -20 -6 -22 -12z"/>
<path d="M6721 18731 c-36 -9 -66 -21 -68 -26 -7 -23 -231 -1220 -228 -1223 1
-2 40 7 87 18 l84 21 26 151 c15 83 29 152 30 153 2 1 132 33 289 72 l286 69
79 -104 c43 -57 86 -113 94 -123 16 -20 16 -20 103 2 48 12 86 25 85 29 -2 4
-174 226 -383 493 -280 358 -385 486 -400 486 -11 -1 -49 -9 -84 -18z m233
-408 c92 -120 167 -222 167 -228 0 -9 -431 -119 -439 -111 -4 4 84 515 93 544
2 6 6 12 9 12 2 0 79 -98 170 -217z"/>
<path d="M11351 18565 c-109 -31 -179 -98 -211 -203 -24 -77 -25 -103 -5 -170
24 -79 94 -148 275 -267 163 -107 201 -141 220 -200 26 -80 -64 -175 -165
-175 -57 0 -179 36 -250 73 -58 31 -182 142 -203 182 -10 19 -14 17 -63 -32
-48 -48 -52 -54 -41 -77 33 -72 173 -184 295 -235 285 -118 532 -53 593 157
19 65 15 141 -10 193 -33 69 -89 121 -245 223 -86 57 -175 124 -198 149 -37
40 -43 53 -43 89 0 78 57 139 141 152 100 16 274 -53 379 -151 l63 -58 48 55
c27 29 49 57 49 61 0 4 -26 31 -59 61 -147 136 -413 217 -570 173z"/>
<path d="M5592 18369 c-78 -13 -219 -69 -285 -113 -154 -102 -212 -251 -156
-403 26 -70 95 -142 154 -161 75 -24 173 -25 318 -3 240 36 314 26 356 -49 52
-93 -4 -188 -153 -260 -118 -56 -273 -73 -398 -44 l-28 6 0 -76 c0 -74 1 -76
28 -83 15 -5 83 -8 152 -7 114 0 133 3 220 33 172 59 277 136 331 246 56 115
36 257 -50 343 -44 44 -75 58 -151 72 -68 12 -105 10 -322 -21 -187 -26 -255
-12 -294 62 -40 79 -5 163 96 228 91 59 186 86 303 85 l97 0 0 72 0 72 -31 6
c-41 8 -121 6 -187 -5z"/>
<path d="M12346 17652 l-488 -396 74 -37 c40 -21 78 -38 85 -39 9 0 93 66 224
177 15 12 49 -2 283 -119 l267 -133 -7 -155 -6 -155 77 -38 c43 -21 79 -37 80
-35 3 3 41 982 47 1182 l1 69 -74 38 -75 37 -488 -396z m468 -77 c-7 -143 -14
-272 -14 -288 l0 -27 -211 105 -211 106 223 184 c122 102 224 184 225 182 1
-1 -4 -119 -12 -262z"/>
<path d="M4245 17713 c-187 -113 -339 -210 -337 -215 3 -11 559 -946 574 -965
6 -8 112 50 361 199 194 115 354 212 357 214 5 5 -35 80 -59 113 -16 21 -20
18 -293 -144 -153 -91 -281 -165 -285 -165 -5 0 -35 46 -68 102 -33 56 -72
123 -87 148 l-28 47 240 142 c132 79 240 148 240 153 0 15 -64 118 -73 118 -5
0 -115 -63 -245 -140 -188 -113 -238 -138 -247 -128 -31 33 -165 272 -156 277
5 3 127 76 270 161 144 85 261 160 261 165 0 15 -64 118 -75 121 -6 1 -163
-90 -350 -203z"/>
<path d="M13580 17561 l-40 -60 158 -107 c86 -59 159 -108 160 -110 2 -1 -119
-184 -268 -406 -150 -222 -274 -407 -276 -413 -4 -10 117 -95 135 -95 5 0 131
182 282 405 150 223 276 405 279 405 4 0 76 -47 160 -105 84 -57 156 -102 159
-100 4 2 24 29 45 60 34 48 37 58 25 69 -24 23 -759 516 -769 516 -5 0 -27
-27 -50 -59z"/>
<path d="M8695 17343 c-1277 -21 -2596 -391 -3705 -1039 -1024 -598 -1884
-1402 -2540 -2374 -129 -192 -343 -544 -332 -548 5 -1 55 9 113 23 58 14 168
30 249 37 l145 12 122 185 c710 1076 1702 1956 2861 2535 1003 501 2128 766
3257 766 1578 0 3101 -506 4371 -1453 459 -342 923 -780 1250 -1180 l31 -38
69 35 c85 42 153 62 268 79 l90 12 -104 125 c-505 611 -1100 1144 -1745 1565
-627 409 -1287 717 -1990 930 -781 235 -1564 342 -2410 328z"/>
<path d="M3250 16964 c-74 -20 -153 -57 -211 -99 -124 -89 -429 -348 -422
-358 8 -13 689 -845 708 -865 10 -11 52 20 232 167 130 107 238 203 265 238
168 215 181 462 36 680 -80 119 -197 205 -325 238 -72 19 -211 18 -283 -1z
m285 -182 c87 -41 172 -127 217 -219 30 -63 33 -76 33 -163 0 -86 -3 -101 -31
-160 -48 -102 -112 -166 -341 -347 l-41 -33 -265 324 -265 324 139 114 c200
163 279 200 415 194 55 -2 87 -10 139 -34z"/>
<path d="M14397 16377 l-569 -262 63 -57 c35 -32 69 -58 75 -58 6 0 71 29 145
63 l133 64 223 -194 c123 -107 223 -197 223 -201 0 -4 -20 -70 -45 -147 l-44
-140 62 -57 c34 -32 67 -56 72 -54 6 1 90 270 187 597 l177 594 -62 57 c-34
32 -64 57 -67 57 -3 0 -261 -118 -573 -262z m430 -208 c-45 -145 -86 -266 -90
-268 -8 -3 -294 237 -331 277 -15 18 -4 24 241 140 141 67 258 120 260 119 1
-2 -35 -122 -80 -268z"/>
<path d="M8495 16554 c-22 -2 -107 -8 -190 -14 -192 -14 -414 -42 -635 -80
-1728 -297 -3309 -1268 -4367 -2680 -108 -145 -263 -369 -263 -381 0 -3 39
-19 88 -34 81 -25 209 -72 294 -109 l38 -16 82 122 c122 183 287 414 377 526
145 183 509 542 763 755 286 240 770 571 1014 695 l39 20 206 -182 c113 -99
573 -504 1022 -899 449 -396 817 -723 817 -728 0 -5 -17 -31 -38 -59 -114
-150 -208 -357 -250 -550 l-26 -120 -780 -2 -779 -3 52 -70 c54 -72 87 -106
155 -156 l39 -29 652 0 652 0 7 -71 c23 -251 125 -516 274 -714 37 -48 71 -94
77 -102 8 -10 -113 -136 -506 -529 l-515 -515 -665 383 -664 384 -61 -55 c-34
-31 -97 -77 -141 -103 -75 -44 -299 -148 -321 -148 -21 0 -234 -99 -414 -193
l-187 -98 33 -67 c56 -112 69 -165 64 -252 -4 -70 -8 -82 -41 -128 -54 -73
-158 -166 -219 -196 -79 -38 -190 -51 -331 -38 -148 14 -234 43 -406 137 -190
104 -309 141 -471 150 -380 19 -503 34 -590 72 -123 55 -187 90 -275 152 -54
39 -102 68 -106 64 -3 -5 -14 -66 -23 -138 -98 -768 -82 -1455 50 -2175 137
-749 445 -1584 827 -2240 44 -76 52 -95 39 -97 -10 -1 -120 17 -246 40 l-230
42 -102 204 c-672 1339 -916 2837 -703 4325 16 115 28 210 27 211 -2 2 -48 15
-103 29 -120 32 -189 62 -237 105 l-36 32 -11 -52 c-6 -28 -24 -144 -41 -257
-318 -2232 326 -4446 1789 -6152 341 -397 831 -856 1216 -1139 33 -25 74 -65
90 -90 47 -71 116 -123 175 -132 40 -6 87 -31 224 -118 976 -620 2020 -1001
3151 -1150 373 -49 486 -56 1010 -56 524 0 637 7 1010 56 541 71 1061 196
1570 376 88 31 180 65 205 76 35 15 75 21 183 25 l137 5 34 46 c65 88 106 116
356 243 886 451 1629 1025 2300 1778 451 506 876 1142 1172 1757 427 886 668
1788 750 2808 17 211 17 899 0 1110 -24 300 -99 866 -117 884 -6 5 -104 -39
-111 -51 -3 -5 4 -23 14 -41 11 -17 35 -68 53 -112 39 -98 46 -215 16 -276
-40 -80 -147 -190 -259 -264 -13 -8 -14 -24 -7 -100 32 -336 29 -884 -6 -1260
-88 -932 -341 -1815 -755 -2630 l-76 -150 -235 -46 c-129 -25 -236 -45 -237
-43 -2 1 27 58 66 126 625 1105 940 2418 883 3682 -7 155 -16 303 -20 331 l-6
50 -60 7 c-92 11 -196 52 -359 141 -254 138 -340 159 -691 170 -77 2 -114 2
-82 0 l57 -4 0 -1801 0 -1802 -1452 1449 c-799 797 -1619 1614 -1823 1816
l-369 368 99 -5 c55 -2 197 -9 315 -14 345 -16 424 -34 775 -172 366 -145 495
-175 704 -165 131 6 217 28 328 82 79 39 197 125 283 206 67 63 37 45 -56 -34
-187 -158 -377 -226 -599 -213 -148 8 -237 29 -542 130 -480 158 -763 209
-1238 221 -249 7 -380 19 -471 45 l-67 18 187 -187 186 -186 0 -858 c0 -471
-2 -857 -5 -857 -3 0 -315 264 -694 588 -379 323 -801 683 -940 801 l-251 213
0 483 0 484 48 6 c230 31 487 126 648 240 l49 35 65 -63 c36 -34 123 -118 193
-187 106 -104 127 -120 120 -95 -13 47 -8 93 11 114 39 43 121 50 186 16 14
-7 -66 77 -177 188 -200 198 -202 201 -185 222 226 286 334 534 359 820 l6 75
906 0 906 0 -113 -49 c-132 -57 -160 -75 -279 -175 -112 -94 -208 -203 -346
-393 -37 -51 -66 -93 -63 -93 2 0 38 42 79 93 99 121 321 336 424 410 99 70
245 148 352 187 87 32 258 70 315 70 39 0 39 0 51 93 29 223 201 453 453 605
114 68 248 120 457 176 376 100 432 136 653 408 165 203 199 249 140 185 l-45
-48 -54 63 c-621 730 -1351 1306 -2189 1727 -792 399 -1587 628 -2495 717
-149 14 -893 28 -1000 18z m1490 -493 c570 -99 1141 -280 1668 -529 64 -30
117 -58 117 -63 0 -4 -429 -384 -952 -845 -524 -460 -963 -846 -974 -856 -21
-19 -22 -18 -118 47 -186 126 -392 208 -603 242 l-113 17 0 1008 0 1008 403 0
c400 0 403 0 572 -29z m-1235 -1511 l0 -480 -22 -4 c-13 -3 -63 -12 -112 -21
-187 -35 -394 -125 -558 -243 -77 -55 -91 -62 -106 -50 -9 7 -117 102 -241
212 -125 109 -445 392 -713 628 -269 236 -488 431 -488 434 0 2 504 4 1120 4
l1120 0 0 -480z m1980 -1040 l0 -690 -198 0 -198 0 -12 73 c-35 206 -134 433
-263 604 -37 48 -47 69 -39 77 15 15 704 624 708 625 1 1 2 -309 2 -689z
m-1607 286 c150 -29 319 -99 451 -188 88 -60 255 -230 315 -323 136 -209 196
-411 195 -660 0 -144 -19 -263 -61 -378 -223 -625 -895 -953 -1511 -735 -179
63 -312 147 -448 282 -227 226 -346 515 -346 836 0 311 112 592 325 817 186
196 450 329 718 362 91 12 265 5 362 -13z m-1007 -2376 c152 -99 337 -174 509
-205 50 -9 100 -19 113 -21 l22 -4 0 -385 0 -385 -1062 -973 c-585 -536 -1650
-1512 -2368 -2170 l-1305 -1197 -339 3 -339 2 -87 145 c-48 80 -109 186 -136
235 l-50 90 2471 2463 c1358 1354 2475 2460 2481 2458 5 -2 46 -27 90 -56z"/>
<path d="M2552 15593 c-675 -715 -1225 -1535 -1624 -2423 -90 -201 -172 -399
-167 -404 2 -2 81 3 176 12 l171 15 58 136 c72 168 266 562 364 736 348 623
795 1233 1256 1715 101 105 107 113 94 133 -20 34 -182 217 -191 217 -4 0 -66
-62 -137 -137z"/>
<path d="M15265 15512 c-56 -43 -111 -84 -124 -92 l-23 -15 88 -95 c297 -322
593 -700 837 -1068 68 -103 136 -208 151 -234 16 -27 30 -48 33 -48 7 0 308
82 311 85 4 4 -98 171 -205 335 -247 376 -543 757 -853 1098 -56 62 -104 112
-108 111 -4 0 -52 -35 -107 -77z"/>
<path d="M14860 14323 c-131 -17 -282 -77 -393 -157 -91 -64 -165 -147 -251
-280 -113 -174 -211 -269 -351 -339 -53 -26 -244 -88 -410 -132 -383 -102
-610 -256 -743 -505 -54 -100 -83 -193 -81 -255 1 -27 1 -56 0 -63 -2 -21 -80
-50 -169 -62 -146 -20 -354 -90 -473 -161 -227 -134 -396 -302 -638 -634 -142
-195 -242 -317 -313 -377 -107 -92 -226 -154 -350 -183 -116 -27 -292 -16
-367 24 -34 19 -110 19 -121 1 -51 -80 96 -319 251 -408 126 -72 216 -89 534
-102 571 -23 825 -65 1288 -216 334 -109 403 -125 582 -131 132 -5 161 -3 235
16 158 40 296 122 438 259 72 71 242 274 242 290 0 11 -90 69 -150 96 -60 27
-221 76 -250 76 -10 0 -28 -16 -40 -35 -30 -48 -105 -112 -171 -145 -90 -46
-171 -63 -294 -63 -134 -1 -225 17 -445 88 -91 29 -203 64 -250 78 -47 13
-155 52 -240 85 -85 33 -201 74 -258 90 -126 37 -154 54 -150 89 2 21 17 34
68 61 92 50 161 98 310 217 200 161 227 173 549 255 263 66 335 93 505 189 78
43 168 92 201 109 191 95 369 97 593 3 l72 -30 103 50 c84 41 130 55 251 80
209 43 207 42 106 72 -126 39 -193 53 -425 87 -245 36 -352 58 -459 94 -297
100 -468 288 -339 373 24 16 48 18 223 15 218 -4 303 8 421 57 124 52 212 123
464 377 248 250 320 309 446 369 149 70 343 97 480 65 209 -48 385 -221 420
-415 25 -136 -21 -297 -120 -423 l-41 -51 48 -6 c114 -14 221 -54 537 -200
l81 -37 124 79 c304 193 494 289 722 364 132 44 160 50 220 47 72 -3 87 5 88
43 0 53 -160 135 -405 209 -276 84 -321 107 -475 245 -170 153 -217 183 -494
318 -195 95 -244 125 -403 252 -113 90 -206 144 -290 168 -56 17 -187 28 -243
20z"/>
<path d="M14772 13650 c-163 -43 -276 -124 -517 -372 -97 -101 -204 -207 -238
-236 -153 -132 -326 -222 -497 -258 -57 -12 -117 -15 -245 -12 l-170 3 -3 -32
c-8 -80 178 -197 419 -262 41 -11 187 -41 324 -66 138 -25 325 -66 417 -92
l167 -46 58 38 c32 21 114 93 181 159 l124 121 -70 6 c-85 8 -147 35 -206 89
-61 56 -86 111 -86 187 0 140 84 249 221 287 168 48 309 -20 309 -148 0 -59
-20 -90 -71 -110 -41 -16 -152 -20 -199 -7 l-25 7 22 12 c12 7 44 12 71 12
111 0 156 47 121 124 -42 91 -252 64 -340 -44 -104 -126 -25 -285 166 -335 97
-25 149 -20 214 19 98 59 155 84 241 105 45 12 91 21 100 21 10 0 33 17 53 39
136 150 171 374 86 549 -98 202 -374 308 -627 242z"/>
<path d="M2540 13379 c-394 -32 -795 -218 -1050 -486 -41 -43 -115 -124 -164
-178 -200 -223 -341 -321 -566 -393 -159 -51 -419 -92 -584 -92 -78 0 -110
-16 -114 -56 -4 -36 32 -85 79 -110 16 -8 77 -26 136 -40 179 -42 267 -93 538
-314 251 -205 395 -249 655 -201 63 12 143 21 178 21 l63 0 80 72 c115 105
222 181 313 226 90 44 117 53 261 81 55 10 126 29 157 41 56 21 155 87 191
127 17 20 17 21 -12 26 -34 7 -72 25 -261 125 -238 125 -446 179 -655 169
-138 -7 -231 -34 -286 -84 -55 -49 -69 -81 -69 -153 0 -96 43 -162 140 -210
64 -33 174 -38 216 -11 55 34 71 131 24 146 -28 9 -25 35 3 35 77 0 81 -132 5
-195 -78 -66 -251 -52 -336 28 -44 41 -92 158 -92 225 0 75 75 162 184 213
143 67 294 65 571 -6 209 -54 280 -81 419 -161 72 -41 148 -80 168 -86 l38
-11 104 101 c174 167 303 229 496 239 177 9 260 -20 765 -267 355 -174 539
-255 644 -285 82 -23 355 -66 506 -80 39 -3 99 -10 135 -16 l65 -10 144 66
c335 152 474 186 886 215 83 6 173 17 200 25 93 26 140 106 93 158 -20 23 -35
28 -113 37 -245 27 -521 158 -694 330 -37 36 -110 122 -164 192 -134 173 -216
249 -331 304 -159 77 -375 108 -591 85 -141 -15 -201 -29 -419 -97 -235 -73
-336 -94 -466 -94 -169 0 -266 29 -565 168 -82 38 -182 81 -220 95 -110 39
-288 75 -429 87 -140 11 -137 11 -276 -1z"/>
<path d="M4140 13085 c-45 -9 -54 -13 -30 -13 19 0 58 6 85 13 63 16 30 16
-55 0z"/>
<path d="M17022 12989 c-100 -21 -287 -78 -280 -85 3 -2 30 5 61 15 59 21 208
54 289 66 26 3 50 10 53 16 9 13 -16 10 -123 -12z"/>
<path d="M15150 12744 c-78 -21 -176 -68 -240 -117 -30 -23 -120 -104 -200
-182 -222 -214 -284 -248 -527 -290 -206 -36 -274 -70 -498 -250 -125 -101
-188 -164 -276 -275 -122 -153 -216 -228 -334 -267 -71 -23 -80 -45 -38 -85
77 -73 194 -121 426 -173 152 -34 250 -84 422 -211 153 -113 292 -184 425
-218 115 -29 164 -34 435 -46 336 -14 387 -29 730 -215 136 -73 199 -91 355
-101 127 -8 244 7 316 40 67 31 201 159 238 227 48 86 35 183 -41 331 -42 80
-90 130 -157 163 -151 74 -351 47 -426 -56 -79 -110 -55 -254 57 -328 61 -41
112 -54 201 -54 84 1 100 -19 30 -38 -102 -27 -234 15 -308 98 -38 44 -70 120
-70 167 0 16 -11 25 -47 38 -49 18 -93 52 -250 192 -137 123 -259 196 -375
225 -26 6 -109 18 -185 26 -170 18 -266 39 -361 76 -91 36 -149 74 -168 110
-18 35 -18 103 0 118 9 7 61 10 157 9 l144 -3 64 33 c45 24 104 72 200 166
152 147 182 169 264 190 99 26 325 38 482 27 217 -16 251 -30 377 -153 109
-106 143 -171 143 -273 0 -84 -23 -129 -89 -174 -67 -46 -139 -66 -241 -66
-134 0 -223 43 -264 129 -51 104 3 221 110 241 64 12 142 -37 119 -75 -7 -12
-16 -10 -50 9 -48 27 -86 22 -121 -15 -52 -55 -19 -168 60 -209 87 -45 217
-39 328 15 51 26 65 38 83 76 17 34 21 55 16 87 -23 155 -193 315 -371 348
-33 7 -152 12 -265 12 -315 1 -344 -10 -551 -209 -199 -192 -287 -231 -464
-204 -68 10 -79 10 -94 -4 -27 -28 5 -65 100 -113 107 -55 240 -88 403 -102
171 -15 244 -33 343 -86 99 -53 169 -105 290 -218 90 -85 148 -128 189 -141
18 -6 25 1 48 48 51 104 136 153 282 163 121 8 231 -24 312 -91 16 -15 32 -26
35 -26 3 0 29 16 58 37 66 45 312 164 564 273 105 45 226 101 270 123 157 78
297 188 384 301 43 56 121 197 121 220 0 23 -170 53 -530 91 -281 31 -431 74
-700 200 -390 183 -733 346 -819 389 -128 65 -217 86 -355 85 -64 0 -134 -7
-166 -15z"/>
<path d="M3241 12404 c-136 -36 -207 -84 -404 -272 -215 -205 -266 -233 -497
-271 -154 -26 -224 -58 -373 -171 -135 -103 -242 -203 -308 -288 -116 -148
-218 -232 -327 -267 -72 -23 -76 -39 -22 -87 62 -55 150 -94 292 -128 250 -61
289 -79 467 -209 262 -194 383 -232 791 -250 124 -6 245 -16 270 -22 149 -36
144 -34 410 -177 145 -77 186 -87 380 -87 164 0 166 0 230 31 76 36 196 147
229 211 49 97 2 277 -100 388 -101 109 -305 137 -429 57 -72 -47 -111 -166
-80 -246 16 -44 78 -103 132 -126 40 -17 71 -22 131 -22 88 0 99 -14 26 -36
-79 -23 -180 4 -254 69 -42 37 -85 118 -85 161 0 23 -8 31 -54 53 -30 14 -93
60 -141 103 -269 240 -328 270 -603 302 -201 23 -261 38 -370 91 -90 43 -122
79 -122 134 0 58 6 60 157 60 l138 0 63 34 c43 24 102 73 183 154 170 169 206
183 489 193 194 8 331 -6 406 -40 64 -29 203 -165 232 -226 48 -101 41 -190
-20 -256 -51 -55 -125 -84 -233 -91 -66 -4 -90 -1 -138 17 -138 52 -188 182
-106 275 40 45 95 61 141 42 46 -19 64 -43 48 -61 -10 -13 -16 -12 -43 5 -45
27 -74 24 -109 -11 -27 -27 -30 -36 -26 -75 11 -98 76 -140 213 -140 80 0 98
4 157 32 77 36 98 66 98 141 0 69 -38 139 -116 211 -126 118 -192 135 -501
129 -278 -6 -278 -6 -461 -181 -189 -181 -269 -218 -419 -197 -99 13 -101 13
-108 -11 -23 -72 211 -167 465 -189 67 -5 141 -15 165 -20 126 -28 254 -107
414 -255 57 -53 126 -107 152 -120 l48 -25 11 34 c19 57 84 122 146 145 80 31
176 37 253 17 71 -18 158 -62 174 -87 9 -15 17 -12 71 23 77 50 275 146 524
254 106 46 216 96 245 110 176 88 342 240 415 382 23 44 42 87 42 94 0 20
-111 44 -288 63 -377 42 -510 68 -672 132 -62 24 -432 198 -840 394 -102 49
-214 95 -250 104 -81 19 -238 18 -309 -1z"/>
<path d="M13255 12081 c-105 -29 -200 -71 -394 -176 -240 -128 -315 -158 -536
-216 -267 -70 -322 -98 -495 -254 -41 -37 -98 -83 -127 -102 -89 -60 -81 -85
44 -137 49 -19 131 -53 183 -74 205 -84 576 -194 764 -227 104 -18 273 -20
348 -4 84 18 158 59 221 122 31 31 57 62 57 67 0 5 -33 19 -72 31 -79 24 -162
62 -191 87 -17 15 -20 14 -43 -16 -40 -50 -78 -66 -164 -66 -61 0 -83 4 -120
24 -61 34 -90 80 -90 142 0 115 99 209 269 253 83 21 222 21 285 0 l48 -17 40
39 c22 21 65 70 96 108 73 91 217 232 315 308 42 33 77 62 77 64 0 2 -4 1 -10
-2 -5 -3 -49 9 -97 26 -78 28 -103 32 -213 35 -101 3 -139 0 -195 -15z"/>
<path d="M6315 12029 c-92 -7 -292 -46 -282 -55 2 -2 39 3 83 10 43 8 127 17
186 21 64 4 115 13 125 21 14 10 15 13 3 12 -8 0 -60 -4 -115 -9z"/>
<path d="M17770 11979 c0 -5 5 -7 10 -4 6 3 10 8 10 11 0 2 -4 4 -10 4 -5 0
-10 -5 -10 -11z"/>
<path d="M5998 11963 c7 -3 16 -2 19 1 4 3 -2 6 -13 5 -11 0 -14 -3 -6 -6z"/>
<path d="M5735 11881 c-181 -67 -215 -83 -190 -89 11 -2 46 -12 79 -23 60 -18
64 -4 4 16 -30 11 -30 11 73 60 57 27 124 57 149 66 100 40 6 15 -115 -30z"/>
<path d="M11329 11823 c-13 -16 -12 -17 4 -4 16 13 21 21 13 21 -2 0 -10 -8
-17 -17z"/>
<path d="M11264 11738 c-79 -102 -223 -247 -309 -311 -85 -64 -228 -139 -310
-162 -27 -8 -90 -21 -140 -28 l-90 -14 59 -8 c174 -23 388 49 535 181 29 26
80 83 115 128 68 89 199 276 193 276 -2 0 -26 -28 -53 -62z"/>
<path d="M12923 11515 c-186 -50 -295 -185 -238 -295 34 -66 108 -91 207 -71
56 12 108 49 108 78 0 8 -9 31 -21 49 -12 20 -19 46 -17 65 3 30 7 34 73 56
66 22 165 79 165 95 0 14 -105 38 -164 37 -34 0 -85 -7 -113 -14z"/>
<path d="M1595 11484 c-27 -8 -93 -19 -145 -25 -52 -6 -97 -15 -101 -20 -10
-16 -61 -261 -55 -266 11 -12 93 29 157 77 37 27 98 87 135 132 104 125 100
118 78 117 -11 0 -41 -7 -69 -15z"/>
<path d="M301 11158 c-46 -244 -89 -573 -117 -883 -21 -246 -30 -920 -15
-1196 113 -2049 895 -3924 2267 -5439 228 -252 777 -780 810 -780 5 0 58 49
117 108 l108 108 -118 104 c-570 504 -1055 1060 -1473 1689 -1187 1786 -1652
3961 -1299 6079 17 101 28 189 26 195 -4 12 -254 127 -274 127 -6 0 -20 -51
-32 -112z"/>
<path d="M17494 10968 l-140 -70 17 -121 c53 -360 78 -675 86 -1072 28 -1428
-309 -2841 -980 -4110 -309 -583 -715 -1171 -1129 -1636 l-68 -77 96 -113 c53
-63 100 -118 104 -122 4 -5 58 49 119 119 934 1068 1590 2330 1921 3698 267
1102 319 2245 154 3381 -14 99 -29 183 -33 186 -3 4 -69 -25 -147 -63z"/>
<path d="M13802 10878 c7 -20 154 -123 241 -169 129 -67 321 -121 421 -118 17
1 -5 7 -49 14 -44 7 -109 20 -145 29 -93 24 -270 115 -373 191 -91 67 -101 73
-95 53z"/>
<path d="M13594 10638 l-29 -33 33 29 c17 17 32 31 32 33 0 8 -8 1 -36 -29z"/>
<path d="M15848 10253 c6 -2 18 -2 25 0 6 3 1 5 -13 5 -14 0 -19 -2 -12 -5z"/>
<path d="M14329 3381 l-334 -329 55 -56 55 -56 137 137 138 138 349 -355 349
-355 64 63 63 62 -353 353 -354 354 143 135 142 136 -48 51 c-26 28 -53 51
-60 51 -7 0 -163 -148 -346 -329z"/>
<path d="M4063 2905 c-24 -30 -43 -58 -43 -63 1 -4 71 -61 155 -126 85 -66
155 -123 155 -128 0 -4 -94 -128 -209 -276 -230 -292 -261 -322 -341 -322
-105 0 -201 104 -216 234 -4 31 -11 56 -17 56 -5 0 -39 -5 -75 -12 l-64 -12 5
-62 c10 -136 107 -268 244 -336 58 -28 78 -33 143 -33 93 0 162 30 232 102 70
71 539 676 530 684 -21 20 -448 349 -452 349 -3 0 -24 -25 -47 -55z"/>
<path d="M13486 2660 c-47 -37 -65 -56 -62 -68 3 -9 62 -280 131 -602 69 -322
128 -591 130 -598 5 -14 145 85 145 103 -1 5 -16 74 -34 151 l-33 142 238 176
c130 97 239 176 242 176 3 0 64 -34 137 -76 l131 -75 70 51 c38 29 69 55 69
59 0 5 -1057 596 -1090 609 -3 1 -37 -20 -74 -48z m613 -440 c0 -13 -362 -271
-369 -264 -4 5 -33 122 -64 259 -31 138 -59 260 -62 272 -5 19 38 -2 245 -120
137 -78 250 -144 250 -147z"/>
<path d="M4678 1837 c-279 -199 -507 -364 -507 -368 -2 -12 150 -90 161 -83 7
4 64 45 127 91 62 45 116 81 120 79 158 -89 489 -282 498 -290 9 -8 8 -38 -2
-126 -24 -194 -27 -182 57 -230 39 -22 74 -37 77 -31 9 14 124 1219 118 1234
-4 12 -125 87 -139 87 -1 0 -231 -163 -510 -363z m460 -127 c-17 -157 -32
-286 -33 -288 -1 -1 -94 50 -205 115 -183 105 -201 118 -184 130 10 7 116 84
234 171 118 87 216 158 217 158 1 -1 -13 -129 -29 -286z"/>
<path d="M12562 2051 c-54 -16 -406 -187 -498 -242 l-31 -19 258 -502 c142
-277 262 -504 268 -506 10 -3 151 65 151 73 0 3 -34 71 -76 151 -64 123 -74
148 -63 159 8 7 76 44 151 82 l137 70 188 -98 188 -97 85 43 85 43 -30 17
c-16 9 -110 58 -208 109 l-178 92 21 26 c62 80 90 196 70 294 -27 129 -103
235 -207 286 -58 28 -78 33 -157 35 -66 2 -108 -2 -154 -16z m218 -163 c56
-29 105 -93 126 -165 19 -64 13 -110 -22 -170 -33 -58 -84 -94 -252 -183
l-147 -78 -113 221 c-86 167 -110 222 -100 229 38 25 279 143 313 154 65 21
145 17 195 -8z"/>
<path d="M5820 1207 l0 -605 80 -27 c45 -15 86 -25 93 -22 7 3 139 170 292
371 l280 366 3 -469 2 -469 78 -26 c42 -14 82 -26 89 -26 7 0 170 210 364 468
193 257 356 472 361 478 6 9 -14 20 -69 38 l-78 27 -28 -33 c-15 -18 -146
-189 -290 -380 l-262 -347 -3 479 -2 478 -77 26 c-66 22 -77 24 -87 11 -6 -8
-137 -178 -291 -378 l-280 -363 -3 476 -2 476 -73 23 c-39 13 -78 26 -84 28
-10 4 -13 -120 -13 -600z"/>
<path d="M11220 1497 l-65 -22 -72 -619 c-40 -341 -71 -621 -69 -624 3 -2 41
8 84 22 l80 27 6 42 c3 23 11 92 17 152 6 63 16 112 23 115 6 2 133 43 281 91
l270 87 65 -71 c36 -40 83 -92 105 -115 l41 -44 79 24 c43 13 80 28 82 34 5
17 -818 919 -841 921 -11 1 -50 -8 -86 -20z m302 -437 l154 -175 -220 -71
c-122 -39 -222 -70 -224 -69 -3 3 42 445 54 533 l6 42 38 -42 c21 -24 107
-122 192 -218z"/>
<path d="M9785 1193 c-137 -19 -251 -36 -252 -37 -1 -1 149 -1128 151 -1133 4
-7 607 82 670 99 102 27 190 85 231 152 41 67 48 182 16 267 -27 72 -100 144
-164 161 l-45 12 39 48 c46 58 59 101 59 188 0 114 -55 199 -160 249 -86 40
-229 39 -545 -6z m454 -132 c88 -45 109 -176 41 -246 -19 -19 -58 -44 -87 -55
-47 -17 -412 -74 -421 -65 -4 3 -50 338 -48 342 1 1 78 13 171 27 194 29 283
28 344 -3z m131 -488 c61 -36 94 -126 70 -197 -15 -47 -76 -98 -142 -119 -70
-21 -447 -72 -457 -61 -8 10 -54 344 -48 350 4 4 349 51 407 56 57 5 136 -9
170 -29z"/>
<path d="M7718 681 c-175 -290 -318 -533 -318 -538 0 -6 28 -13 61 -17 118
-12 106 -20 189 124 41 71 80 130 85 130 25 0 577 -68 580 -72 3 -2 24 -69 48
-149 l44 -144 59 -8 c33 -4 73 -6 90 -5 l31 3 -144 450 c-79 248 -164 514
-188 592 -32 101 -50 143 -63 147 -9 2 -48 7 -87 10 l-70 6 -317 -529z m469
57 c46 -149 81 -273 80 -275 -4 -3 -450 48 -455 53 -5 3 281 493 288 493 3 1
42 -121 87 -271z"/>
</g>
</svg>
